<svg xmlns="http://www.w3.org/2000/svg" height="24" viewBox="0 96 960 960" width="24"><path d="M200 936q-33 0-56.5-23.5T120 856V296q0-33 23.5-56.5T200 216h240q17 0 28.5 11.5T480 256q0 17-11.5 28.5T440 296H200v560h560V616q0-17 11.5-28.5T800 576q17 0 28.5 11.5T840 616v240q0 33-23.5 56.5T760 936H200Zm160-240q-11-11-11-28t11-28l344-344H600q-17 0-28.5-11.5T560 256q0-17 11.5-28.5T600 216h200q17 0 28.5 11.5T840 256v200q0 17-11.5 28.5T800 496q-17 0-28.5-11.5T760 456V352L415 697q-11 11-27 11t-28-12Z" fill='#e3e8f0'/></svg>